<svg width="735.547" height="99.902" viewBox="0 0 735.547 99.902" xmlns="http://www.w3.org/2000/svg"><g id="svgGroup" stroke-linecap="round" fill-rule="evenodd" font-size="9pt" stroke="#aeaeae" stroke-width="0.1mm" fill="#efefef" style="stroke:#aeaeae;stroke-width:0.1mm;fill:#efefef"><path d="M 168.799 22.461 L 176.953 22.461 L 176.953 75.977 L 170.313 75.977 L 169.141 68.457 L 168.701 68.457 Q 167.041 71.24 164.404 73.145 A 19.063 19.063 0 0 1 158.575 75.971 A 21.398 21.398 0 0 1 158.472 76.001 Q 155.176 76.953 151.465 76.953 A 32.546 32.546 0 0 1 146.819 76.64 Q 144.389 76.289 142.353 75.545 A 17.533 17.533 0 0 1 140.82 74.902 A 13.676 13.676 0 0 1 134.351 68.555 A 18.385 18.385 0 0 1 132.866 64.33 Q 132.178 61.311 132.178 57.52 L 132.178 22.461 L 140.381 22.461 L 140.381 56.934 A 23.562 23.562 0 0 0 140.648 60.606 Q 140.953 62.538 141.608 64.077 A 9.873 9.873 0 0 0 143.408 66.919 Q 145.992 69.732 150.888 70.144 A 20.861 20.861 0 0 0 152.637 70.215 Q 156.94 70.215 159.981 69.043 A 12.173 12.173 0 0 0 162.134 67.969 A 12.175 12.175 0 0 0 166.699 62.667 A 15.666 15.666 0 0 0 167.236 61.353 Q 168.799 56.982 168.799 50.635 L 168.799 22.461 Z M 55.615 73.584 L 55.615 66.113 Q 58.427 67.498 62.176 68.666 A 66.881 66.881 0 0 0 63.428 69.043 Q 67.969 70.361 72.705 70.361 A 33.956 33.956 0 0 0 76.212 70.193 Q 79.759 69.824 81.926 68.64 A 8.025 8.025 0 0 0 82.764 68.115 Q 85.753 65.966 85.883 62.343 A 9.272 9.272 0 0 0 85.889 62.012 A 6.358 6.358 0 0 0 84.644 58.13 Q 83.398 56.445 80.469 54.858 A 37.338 37.338 0 0 0 78.418 53.836 Q 76.087 52.753 72.831 51.54 A 123.87 123.87 0 0 0 72.363 51.367 A 108.456 108.456 0 0 1 68.144 49.663 Q 66.237 48.843 64.579 48.028 A 60.976 60.976 0 0 1 63.501 47.485 A 19.34 19.34 0 0 1 60.56 45.634 A 14.101 14.101 0 0 1 57.739 42.773 Q 55.856 40.187 55.723 36.168 A 18.732 18.732 0 0 1 55.713 35.547 Q 55.713 28.76 61.206 25.122 Q 65.903 22.012 73.116 21.561 A 40.379 40.379 0 0 1 75.635 21.484 A 43.565 43.565 0 0 1 81.717 21.894 A 37.022 37.022 0 0 1 84.692 22.437 A 44.073 44.073 0 0 1 91.067 24.373 A 39.36 39.36 0 0 1 92.578 25 L 89.844 31.494 A 49.407 49.407 0 0 0 83.812 29.385 A 55.374 55.374 0 0 0 82.764 29.102 A 30.37 30.37 0 0 0 75.098 28.125 A 27.367 27.367 0 0 0 71.918 28.297 Q 70.348 28.482 69.054 28.863 A 10.559 10.559 0 0 0 66.479 29.98 A 7.138 7.138 0 0 0 64.785 31.4 A 5.447 5.447 0 0 0 63.477 35.059 A 7.314 7.314 0 0 0 63.706 36.937 A 5.513 5.513 0 0 0 64.868 39.16 Q 66.26 40.771 69.336 42.188 Q 72.412 43.604 77.441 45.508 Q 81.94 47.168 85.345 48.925 A 47.788 47.788 0 0 1 86.133 49.341 A 19.093 19.093 0 0 1 89.106 51.303 A 14.108 14.108 0 0 1 91.772 54.126 A 10.369 10.369 0 0 1 93.358 57.729 Q 93.75 59.371 93.75 61.328 A 17.006 17.006 0 0 1 93.294 65.363 A 12.761 12.761 0 0 1 91.187 69.946 A 14.26 14.26 0 0 1 86.625 73.926 A 18.983 18.983 0 0 1 83.862 75.195 A 26.64 26.64 0 0 1 78.997 76.457 Q 76.583 76.858 73.831 76.935 A 47.386 47.386 0 0 1 72.51 76.953 A 60.671 60.671 0 0 1 68.197 76.808 Q 65.228 76.596 62.793 76.074 A 32.521 32.521 0 0 1 58.948 75.012 A 24.43 24.43 0 0 1 55.615 73.584 Z M 642.285 73.584 L 642.285 66.113 Q 645.097 67.498 648.846 68.666 A 66.881 66.881 0 0 0 650.098 69.043 Q 654.639 70.361 659.375 70.361 A 33.956 33.956 0 0 0 662.882 70.193 Q 666.429 69.824 668.596 68.64 A 8.025 8.025 0 0 0 669.434 68.115 Q 672.423 65.966 672.553 62.343 A 9.272 9.272 0 0 0 672.559 62.012 A 6.358 6.358 0 0 0 671.313 58.13 Q 670.068 56.445 667.139 54.858 A 37.338 37.338 0 0 0 665.088 53.836 Q 662.757 52.753 659.501 51.54 A 123.87 123.87 0 0 0 659.033 51.367 A 108.456 108.456 0 0 1 654.813 49.663 Q 652.907 48.843 651.249 48.028 A 60.976 60.976 0 0 1 650.171 47.485 A 19.34 19.34 0 0 1 647.23 45.634 A 14.101 14.101 0 0 1 644.409 42.773 Q 642.526 40.187 642.393 36.168 A 18.732 18.732 0 0 1 642.383 35.547 Q 642.383 28.76 647.876 25.122 Q 652.573 22.012 659.785 21.561 A 40.379 40.379 0 0 1 662.305 21.484 A 43.565 43.565 0 0 1 668.386 21.894 A 37.022 37.022 0 0 1 671.362 22.437 A 44.073 44.073 0 0 1 677.737 24.373 A 39.36 39.36 0 0 1 679.248 25 L 676.514 31.494 A 49.407 49.407 0 0 0 670.482 29.385 A 55.374 55.374 0 0 0 669.434 29.102 A 30.37 30.37 0 0 0 661.768 28.125 A 27.367 27.367 0 0 0 658.588 28.297 Q 657.018 28.482 655.724 28.863 A 10.559 10.559 0 0 0 653.149 29.98 A 7.138 7.138 0 0 0 651.455 31.4 A 5.447 5.447 0 0 0 650.146 35.059 A 7.314 7.314 0 0 0 650.376 36.937 A 5.513 5.513 0 0 0 651.538 39.16 Q 652.93 40.771 656.006 42.188 Q 659.082 43.604 664.111 45.508 Q 668.61 47.168 672.015 48.925 A 47.788 47.788 0 0 1 672.803 49.341 A 19.093 19.093 0 0 1 675.776 51.303 A 14.108 14.108 0 0 1 678.442 54.126 A 10.369 10.369 0 0 1 680.028 57.729 Q 680.42 59.371 680.42 61.328 A 17.006 17.006 0 0 1 679.964 65.363 A 12.761 12.761 0 0 1 677.856 69.946 A 14.26 14.26 0 0 1 673.295 73.926 A 18.983 18.983 0 0 1 670.532 75.195 A 26.64 26.64 0 0 1 665.667 76.457 Q 663.253 76.858 660.501 76.935 A 47.386 47.386 0 0 1 659.18 76.953 A 60.671 60.671 0 0 1 654.867 76.808 Q 651.898 76.596 649.463 76.074 A 32.521 32.521 0 0 1 645.618 75.012 A 24.43 24.43 0 0 1 642.285 73.584 Z M 228.223 68.652 L 227.637 68.652 Q 227.783 70.557 228.003 73.242 A 76.556 76.556 0 0 1 228.137 75.16 Q 228.19 76.109 228.211 76.954 A 41.032 41.032 0 0 1 228.223 77.93 L 228.223 99.902 L 220.068 99.902 L 220.068 22.461 L 226.758 22.461 L 227.832 30.371 L 228.223 30.371 Q 229.785 27.93 232.031 25.903 A 15.662 15.662 0 0 1 235.547 23.532 A 19.514 19.514 0 0 1 237.524 22.681 A 18.341 18.341 0 0 1 240.951 21.802 Q 242.924 21.484 245.215 21.484 A 23.497 23.497 0 0 1 252.548 22.577 A 19.085 19.085 0 0 1 261.182 28.369 A 21.614 21.614 0 0 1 265.201 35.566 Q 266.291 38.73 266.768 42.608 A 53.064 53.064 0 0 1 267.139 49.072 A 50.9 50.9 0 0 1 266.754 55.508 Q 266.113 60.529 264.404 64.404 A 23.67 23.67 0 0 1 261.353 69.553 A 18.815 18.815 0 0 1 256.714 73.779 A 19.969 19.969 0 0 1 248.669 76.702 A 25.743 25.743 0 0 1 245.02 76.953 A 27.247 27.247 0 0 1 241.321 76.715 Q 239.413 76.453 237.767 75.904 A 16.812 16.812 0 0 1 237.549 75.83 A 19.355 19.355 0 0 1 234.217 74.319 A 15.817 15.817 0 0 1 232.031 72.803 A 20.685 20.685 0 0 1 229.245 70.023 A 18.03 18.03 0 0 1 228.223 68.652 Z M 315.381 68.652 L 314.795 68.652 Q 314.941 70.557 315.161 73.242 A 76.556 76.556 0 0 1 315.295 75.16 Q 315.349 76.109 315.369 76.954 A 41.032 41.032 0 0 1 315.381 77.93 L 315.381 99.902 L 307.227 99.902 L 307.227 22.461 L 313.916 22.461 L 314.99 30.371 L 315.381 30.371 Q 316.943 27.93 319.189 25.903 A 15.662 15.662 0 0 1 322.705 23.532 A 19.514 19.514 0 0 1 324.683 22.681 A 18.341 18.341 0 0 1 328.109 21.802 Q 330.082 21.484 332.373 21.484 A 23.497 23.497 0 0 1 339.706 22.577 A 19.085 19.085 0 0 1 348.34 28.369 A 21.614 21.614 0 0 1 352.359 35.566 Q 353.449 38.73 353.926 42.608 A 53.064 53.064 0 0 1 354.297 49.072 A 50.9 50.9 0 0 1 353.912 55.508 Q 353.271 60.529 351.563 64.404 A 23.67 23.67 0 0 1 348.511 69.553 A 18.815 18.815 0 0 1 343.872 73.779 A 19.969 19.969 0 0 1 335.827 76.702 A 25.743 25.743 0 0 1 332.178 76.953 A 27.247 27.247 0 0 1 328.479 76.715 Q 326.571 76.453 324.925 75.904 A 16.812 16.812 0 0 1 324.707 75.83 A 19.355 19.355 0 0 1 321.375 74.319 A 15.817 15.817 0 0 1 319.189 72.803 A 20.685 20.685 0 0 1 316.403 70.023 A 18.03 18.03 0 0 1 315.381 68.652 Z M 713.379 91.797 L 713.379 85.059 L 727.588 85.059 L 727.588 11.23 L 713.379 11.23 L 713.379 4.59 L 735.547 4.59 L 735.547 91.797 L 713.379 91.797 Z M 22.119 85.059 L 22.119 91.797 L 0 91.797 L 0 4.59 L 22.119 4.59 L 22.119 11.23 L 7.91 11.23 L 7.91 85.059 L 22.119 85.059 Z M 539.209 45.703 L 539.209 50.732 L 502.246 50.732 A 31.991 31.991 0 0 0 502.767 56.184 Q 503.812 61.697 506.934 65.088 A 14.792 14.792 0 0 0 514.711 69.489 A 22.359 22.359 0 0 0 519.727 70.02 A 47.71 47.71 0 0 0 523.946 69.842 Q 526.514 69.614 528.711 69.092 A 46.047 46.047 0 0 0 533.708 67.589 A 56.04 56.04 0 0 0 536.816 66.357 L 536.816 73.486 A 40.904 40.904 0 0 1 530.779 75.647 A 36.059 36.059 0 0 1 528.784 76.123 Q 525.364 76.836 520.881 76.937 A 66.892 66.892 0 0 1 519.385 76.953 A 31.944 31.944 0 0 1 512.587 76.261 A 24.615 24.615 0 0 1 505.933 73.804 Q 500.195 70.654 497.021 64.551 A 26.772 26.772 0 0 1 494.592 57.53 Q 493.964 54.459 493.866 50.931 A 47.526 47.526 0 0 1 493.848 49.609 A 43.318 43.318 0 0 1 494.404 42.491 Q 495.085 38.402 496.602 34.979 A 26.978 26.978 0 0 1 496.753 34.644 A 24.246 24.246 0 0 1 500.646 28.596 A 20.949 20.949 0 0 1 504.956 24.902 A 21.344 21.344 0 0 1 513.934 21.701 A 27.439 27.439 0 0 1 517.432 21.484 A 25.903 25.903 0 0 1 523.039 22.064 A 19.5 19.5 0 0 1 529.15 24.512 Q 534.033 27.539 536.621 32.983 A 26.13 26.13 0 0 1 538.774 40.043 A 35.241 35.241 0 0 1 539.209 45.703 Z M 609.766 22.119 L 608.74 29.639 Q 607.422 29.297 605.811 29.102 A 27.288 27.288 0 0 0 603.896 28.935 A 22.224 22.224 0 0 0 602.783 28.906 A 14.561 14.561 0 0 0 596.704 30.2 Q 593.848 31.494 591.699 33.911 Q 589.551 36.328 588.33 39.722 A 20.601 20.601 0 0 0 587.254 44.502 A 25.769 25.769 0 0 0 587.109 47.266 L 587.109 75.977 L 578.955 75.977 L 578.955 22.461 L 585.693 22.461 L 586.572 32.324 L 586.914 32.324 A 26.833 26.833 0 0 1 590.918 26.88 A 18.127 18.127 0 0 1 596.362 22.949 A 15.397 15.397 0 0 1 601.639 21.554 A 18.68 18.68 0 0 1 603.271 21.484 A 33.676 33.676 0 0 1 605.771 21.581 A 38.653 38.653 0 0 1 606.641 21.655 Q 608.398 21.826 609.766 22.119 Z M 402.539 0 L 402.539 75.977 L 394.385 75.977 L 394.385 0 L 402.539 0 Z M 445.605 22.461 L 453.711 22.461 L 453.711 75.977 L 445.605 75.977 L 445.605 22.461 Z M 228.223 47.607 L 228.223 49.17 A 51.454 51.454 0 0 0 228.45 54.152 Q 228.688 56.595 229.176 58.686 A 25.905 25.905 0 0 0 229.712 60.645 A 15.761 15.761 0 0 0 231.387 64.313 A 12.146 12.146 0 0 0 234.644 67.773 A 12.231 12.231 0 0 0 238.462 69.546 Q 240.107 70.006 242.059 70.15 A 25.032 25.032 0 0 0 243.896 70.215 A 15.229 15.229 0 0 0 247.803 69.737 A 11.632 11.632 0 0 0 252.197 67.529 A 14.533 14.533 0 0 0 255.795 63.153 A 19.598 19.598 0 0 0 257.153 60.034 Q 258.789 55.225 258.789 48.975 A 39.51 39.51 0 0 0 258.363 42.984 Q 257.885 39.873 256.87 37.326 A 18.889 18.889 0 0 0 255.103 33.911 A 12.008 12.008 0 0 0 246.301 28.485 A 18.247 18.247 0 0 0 243.799 28.32 A 23.605 23.605 0 0 0 240.229 28.574 Q 238.301 28.87 236.722 29.508 A 11.735 11.735 0 0 0 234.839 30.469 A 11.743 11.743 0 0 0 230.654 35.122 A 15.386 15.386 0 0 0 229.883 36.89 Q 228.32 41.162 228.223 47.607 Z M 315.381 47.607 L 315.381 49.17 A 51.454 51.454 0 0 0 315.608 54.152 Q 315.846 56.595 316.334 58.686 A 25.905 25.905 0 0 0 316.87 60.645 A 15.761 15.761 0 0 0 318.545 64.313 A 12.146 12.146 0 0 0 321.802 67.773 A 12.231 12.231 0 0 0 325.621 69.546 Q 327.266 70.006 329.217 70.15 A 25.032 25.032 0 0 0 331.055 70.215 A 15.229 15.229 0 0 0 334.961 69.737 A 11.632 11.632 0 0 0 339.355 67.529 A 14.533 14.533 0 0 0 342.953 63.153 A 19.598 19.598 0 0 0 344.312 60.034 Q 345.947 55.225 345.947 48.975 A 39.51 39.51 0 0 0 345.521 42.984 Q 345.043 39.873 344.028 37.326 A 18.889 18.889 0 0 0 342.261 33.911 A 12.008 12.008 0 0 0 333.459 28.485 A 18.247 18.247 0 0 0 330.957 28.32 A 23.605 23.605 0 0 0 327.387 28.574 Q 325.46 28.87 323.88 29.508 A 11.735 11.735 0 0 0 321.997 30.469 A 11.743 11.743 0 0 0 317.812 35.122 A 15.386 15.386 0 0 0 317.041 36.89 Q 315.479 41.162 315.381 47.607 Z M 502.393 44.238 L 530.713 44.238 Q 530.664 39.453 529.224 35.815 A 13.09 13.09 0 0 0 527.212 32.329 A 11.395 11.395 0 0 0 524.854 30.151 Q 522.133 28.27 517.981 28.135 A 20.005 20.005 0 0 0 517.334 28.125 A 16.032 16.032 0 0 0 512.684 28.767 A 12.413 12.413 0 0 0 506.982 32.373 Q 503.592 36.107 502.616 42.443 A 31.738 31.738 0 0 0 502.393 44.238 Z M 453.198 3.735 A 4.976 4.976 0 0 0 449.756 2.441 A 6.362 6.362 0 0 0 449.179 2.467 A 4.791 4.791 0 0 0 446.265 3.735 Q 445.286 4.645 444.996 6.267 A 8.506 8.506 0 0 0 444.873 7.764 A 9.21 9.21 0 0 0 444.907 8.564 Q 444.978 9.378 445.2 10.045 A 4.116 4.116 0 0 0 446.265 11.768 A 4.646 4.646 0 0 0 448.005 12.818 A 5.493 5.493 0 0 0 449.756 13.086 Q 451.758 13.086 453.198 11.768 Q 454.639 10.449 454.639 7.764 A 9.104 9.104 0 0 0 454.599 6.893 Q 454.399 4.814 453.198 3.735 Z" vector-effect="non-scaling-stroke"/></g></svg>